<?xml version="1.0" encoding="UTF-8" standalone="no"?>
<!-- Generator: Adobe Illustrator 18.0.0, SVG Export Plug-In . SVG Version: 6.00 Build 0)  -->

<svg
   xmlns:dc="http://purl.org/dc/elements/1.1/"
   xmlns:cc="http://creativecommons.org/ns#"
   xmlns:rdf="http://www.w3.org/1999/02/22-rdf-syntax-ns#"
   xmlns:svg="http://www.w3.org/2000/svg"
   xmlns="http://www.w3.org/2000/svg"
   xmlns:sodipodi="http://sodipodi.sourceforge.net/DTD/sodipodi-0.dtd"
   xmlns:inkscape="http://www.inkscape.org/namespaces/inkscape"
   version="1.1"
   id="Capa_1"
   x="0px"
   y="0px"
   viewBox="0 0 58 58"
   style="enable-background:new 0 0 58 58;"
   xml:space="preserve"
   sodipodi:docname="cube-svgrepo-com.svg"
   inkscape:version="0.92.4 (5da689c313, 2019-01-14)"><metadata
   id="metadata3801"><rdf:RDF><cc:Work
       rdf:about=""><dc:format>image/svg+xml</dc:format><dc:type
         rdf:resource="http://purl.org/dc/dcmitype/StillImage" /></cc:Work></rdf:RDF></metadata><defs
   id="defs3799" /><sodipodi:namedview
   pagecolor="#ffffff"
   bordercolor="#666666"
   borderopacity="1"
   objecttolerance="10"
   gridtolerance="10"
   guidetolerance="10"
   inkscape:pageopacity="0"
   inkscape:pageshadow="2"
   inkscape:window-width="1920"
   inkscape:window-height="1046"
   id="namedview3797"
   showgrid="false"
   inkscape:zoom="11.313709"
   inkscape:cx="27.846634"
   inkscape:cy="33.410417"
   inkscape:window-x="-11"
   inkscape:window-y="-11"
   inkscape:window-maximized="1"
   inkscape:current-layer="layer1" />
<g
   inkscape:groupmode="layer"
   id="layer1"
   inkscape:label="Cube"
   style="display:inline"><g
     id="g3764">
	<path
   style="fill:#2c1d66;fill-opacity:1"
   d="M 3 13 L 3 45 L 12.078125 49.539062 L 12.078125 43.070312 L 17.34375 45.703125 L 17.34375 52.171875 L 29 58 L 29 26 L 3 13 z M 12.074219 26.658203 L 17.339844 29.291016 L 17.339844 35.773438 L 12.074219 33.140625 L 12.074219 26.658203 z "
   id="polygon3758" />
	<path
   style="fill:#745cd0;fill-opacity:1"
   d="M 55 13 L 29 26 L 29 44.484375 L 34.251953 41.857422 L 34.251953 48.332031 L 29 50.957031 L 29 58 L 55 45 L 55 26.296875 L 49.746094 28.923828 L 49.746094 22.449219 L 55 19.822266 L 55 13 z "
   id="polygon3760" />
	<path
   style="fill:#8c75e4;fill-opacity:1"
   d="M 28 0 L 3 13 L 29 26 L 55 13 L 49.003906 10.113281 L 43.78125 12.724609 L 38.550781 10.109375 L 43.574219 7.5 L 38.359375 4.9882812 L 33.130859 7.6015625 L 27.902344 4.9882812 L 32.929688 2.3730469 L 28 0 z "
   id="polygon3762" />
</g></g>
<g
   id="g3766">
</g>
<g
   id="g3768">
</g>
<g
   id="g3770">
</g>
<g
   id="g3772">
</g>
<g
   id="g3774">
</g>
<g
   id="g3776">
</g>
<g
   id="g3778">
</g>
<g
   id="g3780">
</g>
<g
   id="g3782">
</g>
<g
   id="g3784">
</g>
<g
   id="g3786">
</g>
<g
   id="g3788">
</g>
<g
   id="g3790">
</g>
<g
   id="g3792">
</g>
<g
   id="g3794">
</g>
</svg>